<?xml version="1.0" encoding="UTF-8" standalone="no"?>
<!-- Created with Inkscape (http://www.inkscape.org/) -->

<svg
   xmlns:dc="http://purl.org/dc/elements/1.1/"
   xmlns:cc="http://creativecommons.org/ns#"
   xmlns:rdf="http://www.w3.org/1999/02/22-rdf-syntax-ns#"
   xmlns:svg="http://www.w3.org/2000/svg"
   xmlns="http://www.w3.org/2000/svg"
   xmlns:sodipodi="http://sodipodi.sourceforge.net/DTD/sodipodi-0.dtd"
   xmlns:inkscape="http://www.inkscape.org/namespaces/inkscape"
   version="1.1"
   id="svg3713"
   width="1080"
   height="1079"
   viewBox="0 0 1080 1079"
   sodipodi:docname="RLS_LOGO.svg"
   inkscape:version="0.92.4 (5da689c313, 2019-01-14)">
  <metadata
     id="metadata3719">
    <rdf:RDF>
      <cc:Work
         rdf:about="">
        <dc:format>image/svg+xml</dc:format>
        <dc:type
           rdf:resource="http://purl.org/dc/dcmitype/StillImage" />
        <dc:title></dc:title>
      </cc:Work>
    </rdf:RDF>
  </metadata>
  <defs
     id="defs3717" />
  <sodipodi:namedview
     pagecolor="#ffffff"
     bordercolor="#666666"
     borderopacity="1"
     objecttolerance="10"
     gridtolerance="10"
     guidetolerance="10"
     inkscape:pageopacity="0.19607843"
     inkscape:pageshadow="2"
     inkscape:window-width="2560"
     inkscape:window-height="1351"
     id="namedview3715"
     showgrid="false"
     inkscape:zoom="1.0732159"
     inkscape:cx="384.39292"
     inkscape:cy="539.5"
     inkscape:window-x="1041"
     inkscape:window-y="-9"
     inkscape:window-maximized="1"
     inkscape:current-layer="svg3713"
     inkscape:pagecheckerboard="true" />
  <path
     style="fill:#313195;fill-opacity:1;stroke-width:0.98963463"
     d="m 489.30569,1072.8314 c -32.2386,-3.3183 -53.1879,-6.9383 -83.89943,-14.4974 -13.49967,-3.3226 -47.974,-14.2057 -55.00698,-17.3649 -1.75273,-0.7873 -5.97237,-2.4914 -9.37699,-3.787 -9.92309,-3.776 -30.26003,-12.8775 -42.373,-18.9635 -11.03824,-5.5459 -13.68226,-7.0262 -30.6261,-17.1457 -4.71504,-2.81613 -9.00871,-5.12023 -9.5415,-5.12023 -0.53279,0 -1.11675,-0.3416 -1.29772,-0.7591 -0.18095,-0.4175 -5.12167,-3.8156 -10.97936,-7.5515 -19.41252,-12.3803 -49.01296,-35.443 -67.65366,-52.711 -9.20239,-8.5248 -29.41477,-28.8105 -35.20696,-35.3347 -7.33189,-8.2584 -19.35369,-22.591 -23.21014,-27.6715 -1.8641,-2.4557 -3.65515,-4.6882 -3.98014,-4.9611 -1.3718,-1.1519 -15.49231,-21.2429 -22.664173,-32.2473 -4.26795,-6.5487 -8.12189,-12.3795 -8.5643,-12.9573 -0.44241,-0.5778 -1.52356,-2.3638 -2.40257,-3.9689 -0.87901,-1.6051 -4.58577,-8.053 -8.23723,-14.3289 C 52.861187,766.63927 33.619407,719.22357 22.342957,675.4645 9.0344767,623.82 3.0329667,566.98363 5.5532667,516.46059 c 1.26321,-25.32324 5.5963803,-62.34971 9.5196103,-81.3443 3.1736,-15.36522 9.02987,-39.71355 10.80326,-44.91621 0.74407,-2.18289 3.4078,-10.44315 5.9194,-18.35614 2.51162,-7.91299 5.15316,-15.72676 5.87012,-17.36392 0.71695,-1.63718 2.73344,-6.77193 4.48108,-11.41058 6.59617,-17.50787 20.58144,-47.62035 28.11019,-60.52567 1.75101,-3.00148 5.47568,-9.33521 8.27703,-14.07496 2.80136,-4.73975 5.09339,-8.88873 5.09339,-9.21995 0,-0.33123 0.473,-1.1415 1.05113,-1.80063 0.57813,-0.65911 4.51486,-6.5564 8.7483,-13.10509 6.562364,-10.1513 14.055153,-20.67603 23.988003,-33.69479 19.81025,-25.96478 48.73874,-56.46391 73.80122,-77.80814 9.38979,-7.99673 14.60023,-12.22496 21.22161,-17.22121 0.54289,-0.40963 3.43001,-2.64442 6.41584,-4.96619 9.13951,-7.10688 35.26467,-24.909071 41.94972,-28.585361 1.62863,-0.89563 8.06915,-4.64274 14.31225,-8.32691 27.80662,-16.40919 63.07737,-32.11461 96.23756,-42.85281 7.6003,-2.46119 15.59541,-5.08933 17.76693,-5.84032 4.92562,-1.70346 28.68338,-7.46672 44.49269,-10.79324 24.06204,-5.0630202 58.29686,-8.8827202 90.23991,-10.0683802 48.90005,-1.8150501 114.57998,6.6711402 162.12767,20.9477502 42.59683,12.79006 81.5262,29.34439 114.24687,48.58233 6.2431,3.6706 12.68328,7.39678 14.31151,8.28039 1.62822,0.88362 3.18283,1.84338 3.45468,2.13282 0.27185,0.28943 5.1581,3.50056 10.85832,7.13586 8.4901,5.41454 27.05802,18.626941 33.56302,23.882471 0.8161,0.65936 3.4812,2.74352 5.9223,4.63148 18.8336,14.56562 51.3269,45.32849 66.483,62.94243 15.0772,17.52225 15.7398,18.32885 24.8718,30.27413 10.3505,13.53927 12.2578,16.23464 21.8311,30.85158 4.4679,6.82154 8.5889,12.94209 9.158,13.6012 0.5689,0.65913 1.0345,1.43263 1.0345,1.71892 0,0.28629 1.7743,3.4346 3.943,6.99626 32.73992,53.77111 59.17422,127.34932 68.15522,189.70586 8.8494,61.44231 8.8561,104.11582 0.027,166.82252 -8.7101,61.85824 -32.8226,129.62958 -66.90782,188.05318 -2.5978,4.4527 -4.9462,8.5424 -5.2186,9.0881 -3.1112,6.2336 -37.3938,54.6355 -40.4101,57.0529 -0.3405,0.2729 -1.4921,1.6409 -2.5591,3.0401 -11.0548,14.4958 -43.5976,48.2632 -59.2257,61.4545 -1.6164,1.3643 -6.0448,5.2114 -9.8411,8.549 -13.0715,11.4926 -57.37897,43.693 -63.16417,45.9044 -0.54288,0.2075 -4.09627,2.2557 -7.89642,4.55173 -23.91281,14.4471 -51.60079,28.16 -74.29682,36.7964 -3.40462,1.2956 -7.62426,3.0134 -9.37699,3.8173 -6.44933,2.9581 -41.59155,14.0327 -55.00698,17.3346 -30.14762,7.4203 -38.28162,8.8856 -76.003,13.6907 -17.26622,2.1995 -85.95176,2.729 -104.62751,0.8067 z m 87.84762,-34.6755 c 57.85996,-5.1329 109.28856,-18.0727 159.90242,-40.23253 12.18604,-5.3352 40.04157,-19.4682 48.85907,-24.7894 3.80015,-2.2934 8.17258,-4.9064 9.71651,-5.8068 9.99114,-5.8269 35.26388,-23.4025 47.78317,-33.2304 36.5569,-28.6977 68.0367,-61.2383 95.661,-98.8842 6.8574,-9.3452 21.054,-30.5481 21.054,-31.4446 0,-0.2565 1.4961,-2.7746 3.3248,-5.5956 8.1072,-12.5073 21.773,-38.808 30.2371,-58.1932 39.32082,-90.05739 51.22422,-193.2533 33.47892,-290.24564 -4.0841,-22.32323 -11.3888,-51.4359 -16.6805,-66.47902 -1.1517,-3.27434 -2.5661,-7.51609 -3.1431,-9.42613 -1.5598,-5.1633 -8.98012,-24.04127 -13.66012,-34.75197 -32.6127,-74.63815 -83.9345,-141.68046 -145.8216,-190.48812 -6.92866,-5.46436 -13.70802,-10.83571 -15.06521,-11.93634 -2.97417,-2.41193 -32.83089,-22.47187 -37.58959,-25.25544 -1.85519,-1.08519 -5.14976,-3.04209 -7.32128,-4.34868 C 743.6812,80.448209 684.76381,58.152819 633.9088,48.778979 c -42.33725,-7.80381 -66.41836,-9.84866 -106.10808,-9.01018 -35.4852,0.74966 -58.04372,3.22721 -91.79584,10.08175 -15.17195,3.0812 -45.09895,11.1358 -55.27492,14.8768 -2.44295,0.8981 -5.99633,2.09965 -7.89641,2.67011 -11.01967,3.30846 -38.25194,15.00387 -58.23605,25.01057 C 207.78137,145.89434 122.87975,237.95449 77.021877,350.01501 c -16.69173,40.78874 -27.58915,83.00863 -33.2935,128.98913 -5.6219,45.31587 -4.52033,98.64727 2.92047,141.39193 3.83235,22.01551 6.73651,36.48323 8.36523,41.6734 0.51376,1.63718 2.09474,7.21844 3.51327,12.4028 10.94631,40.0058 29.44272,83.9185 49.734083,118.0747 6.19161,10.4222 24.90659,38.983 28.60759,43.6578 1.08011,1.3643 6.47025,8.2323 11.97807,15.2621 43.1225,55.0388 99.34118,101.2308 162.76704,133.7372 19.17308,9.8264 41.36406,19.48903 57.98031,25.24673 4.22447,1.4637 10.1238,3.5205 13.10963,4.5707 28.38836,9.9841 75.61717,19.5728 113.51098,23.0453 19.78432,1.813 60.99374,1.8583 80.93826,0.089 z m -63.30878,-26.3883 c -52.86921,-2.7538 -107.72269,-15.19603 -156.26576,-35.44493 -12.50186,-5.2151 -45.85345,-21.9793 -55.81295,-28.0545 -4.61447,-2.8148 -9.92613,-6.0072 -11.80369,-7.0942 -13.82674,-8.005 -40.22825,-27.5431 -58.31181,-43.1529 -12.38882,-10.6941 -34.36224,-32.399 -44.38253,-43.8402 -3.5287,-4.0291 -6.86,-7.8244 -7.40289,-8.4339 -8.64102,-9.7021 -40.96265,-54.5057 -40.96265,-56.7817 0,-0.2654 -1.48888,-2.8222 -3.30861,-5.6819 -5.15661,-8.1033 -9.20295,-15.6366 -18.47408,-34.3943 -17.748339,-35.90912 -27.429713,-64.2552 -38.802453,-113.60964 -7.31301,-31.73634 -11.19523,-94.70496 -7.9526,-128.98913 3.17917,-33.61331 5.53395,-48.1267 12.7985,-78.88182 2.64768,-11.2092 6.65777,-25.33134 7.43491,-26.18317 0.45047,-0.49376 5.19133,2.12475 10.778673,5.95334 5.48597,3.75915 11.00768,7.50456 12.27045,8.32314 2.43921,1.58119 13.497,9.13094 29.69695,20.27571 5.42878,3.73473 15.64476,10.75234 22.70219,15.5947 7.05742,4.84234 13.69377,9.46841 14.74744,10.28014 1.87038,1.44091 1.87564,1.68156 0.22173,10.158 -2.88923,14.80762 -4.53637,29.38501 -5.76318,51.00518 -3.60939,63.60787 9.61301,126.37287 38.9512,184.89627 11.15634,22.25448 27.89403,47.81458 43.48624,66.40768 29.2503,34.88 64.30145,64.4029 101.32522,85.3444 8.77543,4.9635 31.36173,15.9274 40.96265,19.8842 48.51248,19.9933 105.18538,29.5913 155.97757,26.4163 24.65523,-1.5412 51.72123,-5.4286 66.60265,-9.5661 2.98584,-0.8301 10.3147,-2.8029 16.28636,-4.3838 23.21,-6.1448 60.03149,-22.1544 82.91236,-36.0496 29.5272,-17.9315 48.00877,-32.475 72.07657,-56.7182 24.27355,-24.4505 36.7503,-40.61 57.49619,-74.4671 3.7311,-6.0891 16.801,-32.37945 20.4708,-41.17728 7.1762,-17.2042 13.9449,-38.06789 17.7048,-54.57232 1.4296,-6.27581 3.2321,-14.08958 4.0054,-17.36392 3.9975,-16.92598 5.7626,-37.99429 5.8191,-69.45569 0.048,-26.70747 -0.2428,-32.98072 -2.2075,-47.62675 -1.2445,-9.2773 -3.1128,-20.43982 -4.1519,-24.8056 -1.0391,-4.36579 -2.7868,-12.05913 -3.8838,-17.09631 -1.0969,-5.03719 -4.2162,-15.95897 -6.9317,-24.27063 -2.7155,-8.31166 -4.9373,-15.17905 -4.9373,-15.26087 0,-0.55292 90.0354,-57.11461 90.3361,-56.75059 0.8919,1.07968 8.3983,20.64193 12.3213,32.10998 10.4232,30.46978 17.9417,62.33249 21.16652,89.70232 0.8682,7.36727 2.0358,16.96704 2.5949,21.33282 1.7392,13.58196 2.3192,56.3034 0.9783,72.04862 -2.9929,35.14295 -5.39418,51.18546 -11.79072,78.76944 -5.0954,21.97251 -12.1245,44.31221 -21.0735,66.97518 -6.0524,15.3275 -22.4578,48.9809 -29.8231,61.1777 -3.0176,4.9974 -5.4867,9.5368 -5.4867,10.0877 0,0.5508 -0.3502,1.1504 -0.7783,1.3323 -0.4281,0.1819 -3.8704,5.17 -7.6496,11.0847 -3.7793,5.9147 -7.3923,11.318 -8.029,12.0073 -0.6367,0.6893 -2.4134,3.0248 -3.9482,5.19 -6.6394,9.3663 -17.3297,23.1329 -21.8213,28.1005 -1.2379,1.3692 -4.7913,5.502 -7.8964,9.1841 -3.1051,3.6821 -11.864,12.8354 -19.4643,20.3406 -53.82104,53.1479 -112.60938,89.2743 -185.17536,113.7938 -34.86383,11.78023 -81.72163,20.28893 -123.2784,22.38563 -20.99186,1.0593 -23.21918,1.0566 -44.55479,-0.054 z m 59.96158,-21.24873 c 6.23716,-1.8619 10.00101,-5.7681 11.06179,-11.48 0.69883,-3.763 -1.21569,-47.8721 -2.21592,-51.0533 -0.17465,-0.5556 -2.57555,-0.8386 -5.45466,-0.6429 -4.95021,0.3363 -5.11922,0.4433 -4.5157,2.8606 l 0.627,2.5112 -3.08864,-2.6125 c -2.48198,-2.0995 -4.11142,-2.6125 -8.29574,-2.6125 -6.69789,0 -10.93554,2.7805 -14.32336,9.3984 -2.15261,4.205 -2.50339,6.1168 -2.37552,12.9475 0.0914,4.881 0.78693,9.5468 1.77909,11.9344 2.92743,7.0446 9.60029,12.3541 15.52644,12.3541 3.7522,0 9.56506,-2.4945 10.30017,-4.4202 1.32996,-3.484 2.5808,-1.3395 2.10742,3.613 -0.35776,3.7427 -1.09478,5.6368 -2.70258,6.9456 -2.86695,2.3337 -8.68373,2.3217 -11.30533,-0.023 -1.67138,-1.4951 -3.05889,-1.718 -7.71795,-1.2403 l -5.68024,0.5824 2.03082,4.1131 c 3.56436,7.219 13.52706,10.0237 24.24291,6.8247 z m -13.85276,-29.8041 c -5.57171,-6.0435 -4.2927,-19.819 2.04636,-22.0404 3.33081,-1.1672 6.02187,-0.3414 8.72298,2.6768 1.47208,1.6448 2.04809,3.9565 2.31619,9.2952 0.32626,6.4967 0.1412,7.3398 -2.15897,9.8344 -3.29377,3.5724 -7.76056,3.6681 -10.92656,0.234 z m -24.80554,13.4999 c 0.30483,-0.4958 0.84344,-8.9274 1.1969,-18.7366 0.61814,-17.1543 0.56093,-17.9682 -1.4986,-21.3179 -4.68716,-7.6238 -15.85276,-8.9456 -21.75639,-2.5755 l -2.06888,2.2323 v -2.6677 c 0,-2.5002 -0.27886,-2.6676 -4.44174,-2.6676 -2.44295,0 -4.77486,-0.1116 -5.18203,-0.2481 -0.61839,-0.2072 -3.28728,43.8627 -2.70517,44.6689 0.10597,0.1467 2.59021,0.37 5.52051,0.4961 l 5.32784,0.2292 0.69541,-14.6668 c 0.6001,-12.6568 0.98131,-15.0705 2.7816,-17.612 1.68798,-2.383 2.80395,-2.9451 5.84635,-2.9451 6.20658,0 6.51545,1.0073 6.13235,19.9992 l -0.33714,16.713 h 4.96737 c 2.73206,0 5.21679,-0.4056 5.52162,-0.9014 z m -47.18316,-9.7661 c 0.0767,-4.2287 0.85405,-11.654 1.72734,-16.5005 2.17876,-12.0916 2.05045,-14.7926 -0.86836,-18.2796 -3.55511,-4.2471 -8.29811,-6.1551 -15.57375,-6.2648 -7.55115,-0.1139 -11.51805,1.6465 -14.44751,6.4112 -3.41006,5.5466 -2.8466,7.2459 2.6191,7.8986 4.15394,0.4961 4.89482,0.2846 6.49817,-1.8553 2.25618,-3.0114 7.32895,-3.2459 10.6659,-0.4932 1.89472,1.5631 2.12667,2.2584 1.24107,3.7209 -0.86682,1.4315 -2.78077,1.9012 -9.37699,2.3012 -13.14659,0.7974 -17.94668,4.8764 -18.09044,15.373 -0.0907,6.6238 2.75259,10.6963 8.62111,12.348 4.46236,1.256 11.73864,0.1643 13.04267,-1.9567 1.09932,-1.7881 2.45106,-0.9839 2.45106,1.4582 0,2.1302 0.50782,2.4696 4.19497,2.8033 2.30722,0.209 4.86123,0.4574 5.67555,0.5521 1.19308,0.1388 1.50766,-1.3207 1.62011,-7.5164 z m -22.77123,-4.7828 c -2.05453,-2.0653 -1.96991,-5.7048 0.17626,-7.5814 2.40081,-2.0992 13.07844,-3.2704 13.07844,-1.4344 0,7.4975 -8.8063,13.4875 -13.2547,9.0158 z m 154.51938,5.7208 c 3.13198,-3.5236 3.83195,-3.8414 3.83195,-1.7396 0,0.7864 0.34787,1.6459 0.77305,1.91 1.35814,0.8438 10.08432,-1.4705 10.08983,-2.6759 0.006,-1.2605 -6.90379,-40.0208 -7.51402,-42.1511 -0.27667,-0.9659 -1.58584,-1.1281 -5.06885,-0.6282 -2.58271,0.3706 -5.01825,0.9682 -5.41231,1.3279 -0.39406,0.3595 0.38323,6.6273 1.72733,13.9283 3.02102,16.4099 3.02208,17.4381 0.0211,20.4549 -2.88474,2.8999 -7.43495,3.2062 -9.73156,0.6552 -1.25772,-1.3971 -6.59964,-26.6399 -6.59964,-31.1861 0,-0.9282 -3.55863,-0.9964 -7.77303,-0.1491 -3.9037,0.7848 -3.91014,1.4658 -0.19146,20.2166 3.40227,17.1552 4.02217,18.9227 7.64402,21.7946 2.38214,1.8888 3.70531,2.1525 9.08735,1.8113 5.59747,-0.3549 6.61308,-0.7525 9.11631,-3.5688 z m -174.94162,-5.5932 c 0.60732,-2.4245 1.10422,-4.7946 1.10422,-5.267 0,-0.4723 -5.44113,-2.1418 -12.09139,-3.7101 -6.65027,-1.5682 -12.40669,-3.1094 -12.79206,-3.4247 -0.67658,-0.5537 1.35473,-9.1914 8.0637,-34.2894 1.75054,-6.5487 3.25294,-12.3319 3.33868,-12.8518 0.25769,-1.5623 -10.45721,-4.7204 -11.30997,-3.3333 -0.39457,0.6417 -2.30563,7.4482 -4.24679,15.1254 -1.94115,7.6773 -5.24918,20.3574 -7.35115,28.1782 -4.44883,16.5527 -5.57724,14.4085 9.73858,18.5059 8.62522,2.3074 15.81272,4.2838 18.26045,5.0211 0.54288,0.1635 2.15581,0.3326 3.58427,0.3757 2.27022,0.069 2.73626,-0.4768 3.70146,-4.33 z m 215.09973,-1.7931 c 2.45475,-1.2278 5.27783,-3.572 6.27349,-5.2091 0.99567,-1.6372 1.81878,-2.5302 1.82911,-1.9845 0.0104,0.5457 0.396,1.5904 0.85699,2.3215 0.69244,1.0982 1.8913,1.0323 6.89425,-0.3788 6.38963,-1.8022 7.25686,-2.7152 4.16102,-4.3808 -2.05678,-1.1065 -2.3247,-1.8314 -7.06516,-19.1163 -2.17971,-7.9478 -4.04609,-12.6619 -5.89247,-14.8833 -2.61114,-3.1416 -2.94725,-3.2499 -9.9644,-3.2124 -5.50026,0.03 -8.25721,0.5642 -11.36378,2.2048 -6.33568,3.3457 -8.23648,6.4124 -8.23648,13.2885 v 5.8385 l 2.71439,-0.6761 c 7.41197,-1.846 7.47917,-1.8878 7.60282,-4.7271 0.14886,-3.4183 2.84606,-5.5491 7.024,-5.5491 3.46431,0 5.89301,2.1363 5.02219,4.4174 -0.30781,0.8064 -3.57776,2.9994 -7.26656,4.8734 -3.68879,1.874 -7.67032,4.4571 -8.84783,5.7402 -4.81577,5.2476 -3.74058,15.3648 2.18904,20.5984 4.22131,3.7258 7.85836,3.9416 14.06938,0.8348 z m -6.29306,-9.4414 c -1.7528,-1.2064 -2.44989,-4.2302 -1.42083,-6.1632 0.53226,-0.9996 3.152,-3.1686 5.82166,-4.82 4.82736,-2.9858 4.85708,-2.9905 5.43109,-0.839 1.20847,4.5296 0.60637,8.2647 -1.68036,10.4242 -2.2656,2.1396 -6.11514,2.7999 -8.15156,1.398 z m 63.28685,7.7216 c 7.11463,-3.4781 10.34553,-8.2047 10.27719,-15.035 -0.0487,-4.8623 -8.8e-4,-4.7225 -9.79259,-28.6394 -3.9099,-9.5502 -7.34568,-18.1453 -7.63509,-19.1003 -0.64814,-2.139 -1.9696,-2.176 -6.70265,-0.188 -3.41157,1.4329 -3.64162,1.7846 -3.08308,4.713 0.37477,1.9651 0.27621,2.6535 -0.26003,1.8164 -0.47496,-0.7416 -2.85442,-1.574 -5.28766,-1.8496 -6.17669,-0.6999 -10.9982,1.7901 -14.24261,7.3552 -2.27159,3.8965 -2.50379,5.1486 -2.04614,11.0335 0.9133,11.7439 7.53142,22.2817 16.0471,25.5508 7.22362,2.7732 14.74442,0.2972 17.96098,-5.913 l 1.59391,-3.0774 1.27228,2.9767 c 1.71937,4.0225 1.66807,7.5521 -0.14762,10.1579 -1.73992,2.4971 -7.90452,4.0013 -10.28182,2.5089 -1.97152,-1.2377 -11.89848,2.1807 -11.89848,4.0973 0,1.8245 4.24119,5.5252 7.52064,6.5624 4.22078,1.3347 10.00402,0.3068 16.70567,-2.9694 z m -21.52165,-27.5508 c -7.42811,-7.7958 -7.3365,-19.1583 0.17377,-21.5544 8.14339,-2.5983 17.2183,17.5576 10.28363,22.8404 -3.03496,2.3119 -7.55925,1.7556 -10.4574,-1.286 z m -316.80482,4.9612 c 6.8125,-16.067 16.57417,-38.2483 18.31821,-41.6242 2.13696,-4.1365 2.17234,-4.0163 -1.65343,-5.6231 -7.42234,-3.1175 -6.90646,-3.3903 -10.9832,5.8069 -2.05977,4.6469 -4.08364,8.4489 -4.4975,8.4489 -0.41384,0 -1.02374,-1.0867 -1.35533,-2.4148 -1.51842,-6.0815 -12.07404,-9.2704 -18.93151,-5.7193 -9.08973,4.7071 -14.26329,13.5274 -14.92769,25.4501 -0.55903,10.0314 1.18624,13.7911 8.05122,17.3445 4.09182,2.118 5.14486,2.2838 8.60545,1.3553 3.64778,-0.9788 3.90626,-0.9165 3.45128,0.8325 -0.3666,1.4093 0.42847,2.3794 3.12271,3.8101 5.92567,3.1468 6.33909,2.8533 10.79979,-7.6669 z m -20.58638,-8.1096 c -3.54959,-3.5682 -3.67496,-6.7637 -0.53163,-13.5496 4.10676,-8.8658 10.21481,-11.6872 14.96467,-6.9124 3.59221,3.611 3.55003,8.7223 -0.12467,15.1039 -2.75811,4.7899 -6.75076,8.2585 -9.50622,8.2585 -1.05432,0 -3.21528,-1.3052 -4.80215,-2.9004 z m 391.72049,-3.6018 c 4.26665,-1.7916 8.68338,-5.755 10.66723,-9.5722 1.51394,-2.9131 1.93096,-13.6923 0.52972,-13.6923 -0.47449,0 -2.91744,1.1543 -5.42878,2.5653 -3.43244,1.9284 -4.56606,3.1506 -4.56606,4.9225 0,6.2325 -8.51316,8.4756 -13.26102,3.4939 l -2.7728,-2.9093 4.80901,-2.6384 c 2.64493,-1.4512 8.01272,-4.3897 11.9284,-6.5302 7.88232,-4.3086 7.84771,-4.1765 2.98156,-11.3803 -3.88622,-5.7531 -8.15728,-8.6068 -13.67952,-9.1402 -7.23203,-0.6986 -11.22448,0.4699 -15.59107,4.563 -7.71776,7.2344 -8.43361,16.4779 -2.12758,27.472 7.21489,12.5785 16.46924,17.0629 26.51091,12.8462 z m -19.52597,-26.3065 c 0,-4.3078 1.44541,-6.5009 5.13727,-7.7946 2.70739,-0.9488 3.58191,-0.8401 5.63415,0.7001 1.33612,1.0028 2.57075,2.2499 2.74363,2.7712 0.32439,0.9782 -10.43423,7.3653 -12.40647,7.3653 -0.60972,0 -1.10858,-1.3689 -1.10858,-3.042 z m -395.42081,16.685 c 2.98638,-5.5936 7.67335,-14.1888 10.41553,-19.1003 2.74216,-4.9115 4.98677,-9.3992 4.98802,-9.9726 9.7e-4,-0.5734 -2.07959,-2.0593 -4.62405,-3.3019 l -4.62629,-2.2594 -1.76759,2.3097 c -0.97219,1.2703 -1.77748,2.6148 -1.78955,2.9877 -0.012,0.3729 -3.73846,7.5366 -8.28085,15.9193 -4.54238,8.3827 -8.53437,16.1146 -8.8711,17.182 -0.47542,1.5071 0.21211,2.4156 3.07687,4.0657 2.029,1.1687 4.22013,2.1733 4.86918,2.2325 0.64905,0.06 3.62347,-4.469 6.60983,-10.0627 z m -21.0372,-8.9947 c 2.4858,-3.9208 6.59625,-10.3173 9.13433,-14.2142 5.56941,-8.5511 6.65697,-13.9732 3.85281,-19.2086 -2.38542,-4.4538 -9.31487,-8.2493 -13.80535,-7.5617 -1.76435,0.2702 -3.20792,0.276 -3.20792,0.013 0,-0.2631 2.22087,-3.7869 4.93527,-7.8305 2.71438,-4.0437 4.93525,-7.7104 4.93525,-8.1483 0,-0.4379 -2.07314,-2.055 -4.60699,-3.5935 -3.59595,-2.1834 -4.7732,-2.5085 -5.36429,-1.4811 -0.41652,0.7239 -6.72969,10.4694 -14.02926,21.6568 -17.00847,26.0671 -17.45564,26.7771 -17.45564,27.7161 0,0.9669 7.14706,6.033 8.44299,5.9846 0.51371,-0.019 4.23184,-5.1828 8.26254,-11.4749 9.91756,-15.4816 12.74686,-17.537 18.20171,-13.2239 4.56697,3.6112 3.36071,6.8285 -9.94817,26.5328 -2.32703,3.4452 -4.23097,6.4526 -4.23097,6.683 0,0.8553 7.45619,5.2921 8.88346,5.286 0.81432,0 3.51442,-3.2143 6.00023,-7.1353 z m 487.55982,-15.556 c 8.75677,-2.4455 17.58762,-10.9473 19.74792,-19.0121 1.99028,-7.4299 -3.28812,-17.73 -10.84041,-21.1535 -3.41045,-1.5459 -4.7239,-1.6438 -9.39896,-0.6999 -2.98897,0.6034 -7.91382,2.2761 -10.94412,3.7172 -7.52141,3.5768 -13.154,4.2868 -14.90562,1.8788 -2.38057,-3.2727 -1.6134,-6.9476 2.14244,-10.2625 4.54229,-4.0091 7.39775,-4.6438 11.68691,-2.5978 3.46528,1.653 3.50527,1.6453 8.13874,-1.5593 l 4.65635,-3.2204 -3.53403,-3.2557 c -8.07355,-7.4376 -19.82821,-6.449 -29.06791,2.4448 -4.51669,4.3475 -6.49242,8.7664 -6.49242,14.5207 0,6.1365 1.85165,9.9159 7.26795,14.8349 4.00696,3.639 4.34672,3.752 9.68766,3.2229 3.04429,-0.3016 9.41516,-2.1438 14.15749,-4.0939 10.0486,-4.132 12.88896,-4.3856 15.01086,-1.3403 2.06031,2.9569 1.93507,5.3597 -0.45522,8.7342 -4.52264,6.3847 -12.28301,8.7001 -16.33484,4.8737 l -2.16747,-2.0469 -4.55875,3.2301 c -2.50731,1.7766 -4.55874,3.5582 -4.55874,3.9592 0,1.3533 7.37997,6.878 10.36405,7.7585 4.04918,1.1947 6.30861,1.2094 10.39812,0.068 z m -529.43414,-9.5726 c 5.13267,-2.4484 8.24021,-7.1206 8.21858,-12.3568 -0.0149,-3.6073 -0.96441,-5.8268 -5.43261,-12.699 -4.20532,-6.4678 -5.16625,-8.6284 -4.30281,-9.6742 1.68658,-2.0428 4.04585,-1.6253 7.14651,1.2649 2.17675,2.029 2.68171,3.2143 2.26389,5.3143 -0.42586,2.1405 0.12843,3.352 2.66404,5.8224 4.06031,3.9561 6.07981,3.9548 7.45299,0 2.16472,-6.2422 0.55503,-11.9032 -5.00752,-17.6104 -4.12038,-4.2279 -8.37809,-6.055 -14.10888,-6.055 -3.74438,0 -5.10787,0.5787 -8.39373,3.5629 -4.04064,3.6696 -5.74769,8.2738 -4.51501,12.178 0.35117,1.1122 2.85352,5.4331 5.56076,9.6019 3.33351,5.1332 4.72918,8.1913 4.324,9.4745 -0.90275,2.8592 -4.66712,2.3182 -8.32587,-1.1966 -2.73354,-2.626 -3.13703,-3.594 -2.67947,-6.4285 0.48063,-2.9773 0.0969,-3.7171 -3.56116,-6.8645 l -4.09983,-3.5277 -1.67367,2.2304 c -5.95415,7.935 1.48932,22.8054 13.58476,27.1396 5.03662,1.8047 6.80087,1.777 10.88503,-0.1713 z m 86.21373,-9.0372 c 0,-0.8629 -7.87419,-5.2173 -9.42707,-5.2132 -0.85691,0 -5.3787,7.9353 -5.3787,9.4364 0,0.2478 2.10981,1.5315 4.68849,2.8526 l 4.6885,2.4021 2.71438,-4.3646 c 1.49292,-2.4005 2.7144,-4.7014 2.7144,-5.1133 z m -122.39443,-16.0493 c 0,-1.1034 4.24892,-6.1414 10.06995,-11.94 11.96878,-11.9227 13.60424,-14.2284 13.61279,-19.1919 0.0173,-10.0812 -11.34686,-20.2781 -20.6862,-18.5614 -3.97092,0.73 -8.91885,3.3906 -8.91885,4.7959 0,0.4261 1.54349,2.2786 3.42999,4.1166 2.93275,2.8574 3.7555,3.1928 5.67555,2.3134 4.38881,-2.01 10.58224,3.1122 9.17025,7.5843 -1.00991,3.1986 -4.45251,2.462 -11.36643,-2.432 -5.29384,-3.7472 -7.04784,-4.465 -10.91136,-4.465 -3.97542,0 -5.22379,0.5488 -9.14951,4.0225 -4.71034,4.1679 -6.41852,8.4496 -5.24545,13.148 1.24465,4.985 8.61817,10.6118 13.9062,10.6118 2.74051,0 3.18087,0.9198 1.33072,2.7797 -0.92321,0.928 -0.33217,2.071 2.66796,5.1595 4.20162,4.3254 6.41439,5.0355 6.41439,2.0586 z m -10.53567,-18.3284 c -2.4297,-2.1009 -2.63204,-2.7066 -1.74032,-5.2092 0.88861,-2.494 1.47522,-2.8204 4.91517,-2.7356 2.19134,0.054 5.59784,1.1167 7.75967,2.4207 l 3.85353,2.3244 -3.32273,2.7885 c -4.07789,3.4222 -7.82753,3.5567 -11.46532,0.4112 z m 620.67956,16.3887 c 6.19985,-3.9524 8.73765,-8.3998 8.73765,-15.3121 0,-5.1638 -2.8401,-12.5905 -4.8148,-12.5905 -0.3693,0 -2.3447,1.6336 -4.38965,3.6303 -2.5457,2.4856 -3.50074,4.1282 -3.02872,5.2092 1.84497,4.2253 1.57104,7.7782 -0.72431,9.3943 -3.4339,2.4178 -6.6225,1.9628 -11.30949,-1.6141 -7.31911,-5.5854 -10.35888,-13.6867 -6.67215,-17.7819 1.81161,-2.0123 5.38716,-2.3554 8.28707,-0.7953 1.54732,0.8324 2.56019,0.4059 5.52775,-2.3279 4.28751,-3.9498 4.01097,-6.0195 -1.09055,-8.1622 -8.33196,-3.4995 -17.79844,-0.685 -22.98098,6.8325 -3.83323,5.5604 -3.86625,14.0722 -0.0797,20.5555 3.115,5.3335 10.47677,12.4171 14.92643,14.3623 5.4935,2.4016 12.52498,1.8425 17.61147,-1.4001 z m 26.43275,-27.6326 c 3.0856,-3.763 3.7602,-5.7941 2.1217,-6.3887 -1.9548,-0.7095 -19.8169,-16.0588 -21.2548,-18.2647 -2.2319,-3.4242 -1.865,-6.9339 1.029,-9.8431 3.7096,-3.729 4.9263,-3.2433 16.2019,6.4672 3.5287,3.0389 8.3514,7.0316 10.7172,8.8726 l 4.3015,3.3474 3.3111,-3.889 c 1.8212,-2.1389 3.3278,-4.1367 3.3482,-4.4395 0.021,-0.3028 -2.0459,-2.312 -4.5918,-4.465 -2.5458,-2.153 -6.679,-5.7005 -9.1848,-7.8834 -15.6625,-13.6443 -21.3687,-15.4061 -28.6071,-8.8323 -3.88069,3.5243 -6.35447,9.0851 -5.28637,11.883 1.22363,3.2055 -2.97631,0.4287 -12.50299,-8.2665 l -2.46763,-2.2522 -3.70145,4.0252 c -2.03579,2.2138 -3.68363,4.3407 -3.66186,4.7262 0.0217,0.3856 2.30796,2.4871 5.08041,4.67 2.77246,2.1829 5.53073,4.4275 6.12949,4.9881 1.28004,1.1983 17.9508,15.1704 20.6856,17.3369 1.0332,0.8186 4.5943,3.8325 7.9135,6.6975 3.3191,2.8651 6.3389,5.2092 6.7105,5.2092 0.3716,0 2.0405,-1.6645 3.7087,-3.6989 z m -670.13641,-3.848 c 0,-0.8765 1.20754,-2.5485 2.68341,-3.7155 9.89273,-7.8223 15.51055,-15.4016 13.65409,-18.4211 -0.36835,-0.5992 0.58447,-0.6114 2.58976,-0.033 6.83012,1.9691 17.17034,-4.1582 19.62267,-11.6278 2.34098,-7.1304 -0.56937,-13.604 -12.51496,-27.8375 -1.01871,-1.2139 -2.96263,-3.769 -4.31982,-5.678 -1.3572,-1.9091 -3.13389,-3.4808 -3.94821,-3.4928 -0.81432,-0.012 -4.58979,2.4566 -8.38994,5.4858 -3.80015,3.0291 -8.44736,6.7103 -10.32715,8.1803 -1.87977,1.47 -8.25896,6.5583 -14.17597,11.3074 -5.91701,4.7491 -11.67902,9.2493 -12.80446,10.0005 -2.02926,1.3544 -2.01874,1.4043 1.26485,6.0006 1.82113,2.5492 3.79106,4.6241 4.37763,4.6109 0.58656,-0.013 4.98264,-3.1954 9.76904,-7.0718 8.17202,-6.6183 8.7825,-6.9344 10.01408,-5.1853 0.72134,1.0245 2.70053,3.6112 4.39819,5.7482 5.03927,6.3434 5.03664,8.2083 -0.0179,12.7308 -2.38859,2.1372 -6.01561,5.4118 -8.06003,7.277 l -3.71713,3.3911 3.71713,4.9054 c 3.77316,4.9795 6.18477,6.3149 6.18477,3.425 z m 16.06618,-32.7534 c -1.36394,-0.597 -11.57187,-13.2314 -11.00438,-13.6202 0.20184,-0.1383 2.6495,-2.1276 5.43923,-4.4205 2.78974,-2.293 5.45478,-4.1691 5.92232,-4.1691 1.62,0 10.22706,12.7469 10.22706,15.146 0,4.5935 -6.42748,8.8831 -10.58423,7.0638 z m 686.18633,-6.6105 c 2.24,-1.2753 5.1388,-4.2205 6.7792,-6.8878 5.4608,-8.8789 4.5046,-18.4765 -2.5682,-25.7791 -5.6652,-5.8493 -11.7605,-8.8799 -18.9818,-9.4376 -7.3992,-0.5715 -13.0395,2.1399 -17.5914,8.4566 -2.5854,3.5877 -3.1291,5.3359 -3.3934,10.9123 -0.2606,5.4957 0.075,7.3078 1.945,10.5137 2.8545,4.8927 10.3096,11.2664 15.2485,13.0366 5.9717,2.1405 13.9899,1.7885 18.5621,-0.8147 z m -14.9029,-10.3901 c -9.6652,-5.4801 -12.6583,-11.763 -8.2735,-17.3667 3.0444,-3.8906 6.3736,-4.2221 12.4395,-1.2388 10.0761,4.9556 12.9856,11.8197 7.3931,17.4415 -3.3546,3.3722 -7.0145,3.7408 -11.5591,1.164 z m -723.58056,-19.6583 c 6.08362,-3.5813 11.72739,-6.9127 12.54171,-7.4033 0.81432,-0.4905 4.81187,-2.8329 8.88346,-5.2053 16.1031,-9.3829 18.75399,-11.109 18.75399,-12.211 0,-0.6297 -0.88834,-2.2801 -1.9741,-3.6677 -1.08576,-1.3875 -1.97411,-3.0105 -1.97411,-3.6066 0,-1.8625 -2.26549,-1.2012 -8.19261,2.3916 -3.14873,1.9086 -6.1469,3.4702 -6.6626,3.4702 -0.51569,0 -0.93762,0.4465 -0.93762,0.9922 0,0.5458 -0.43043,0.9923 -0.95651,0.9923 -0.52608,0 -6.41138,3.2586 -13.07843,7.2415 -6.66707,3.9828 -14.67594,8.7038 -17.79748,10.4911 -3.12155,1.7874 -5.67555,3.673 -5.67555,4.1904 0,1.031 4.94935,8.8359 5.60316,8.8359 0.22306,0 5.38307,-2.9301 11.46669,-6.5113 z m 757.57416,-9.4156 c 9.4572,-2.0389 17.161,-13.826 15.4991,-23.7143 -1.7606,-10.47572 -14.8341,-19.91687 -27.5228,-19.87592 -7.0719,0.0228 -12.1114,3.10721 -16.2304,9.93371 -2.943,4.87736 -3.2401,6.04826 -2.9217,11.51521 0.5818,9.9921 6.9534,17.2113 18.8318,21.3372 6.1221,2.1265 6.1896,2.1309 12.344,0.8041 z m -9.4157,-11.969 c -4.5541,-1.3225 -11.1206,-7.8749 -11.1206,-11.0966 0,-9.454 10.1879,-12.07357 19.4953,-5.01274 6.4843,4.91924 7.5112,11.25974 2.4693,15.24644 -2.6629,2.1056 -5.7256,2.3493 -10.844,0.8629 z m -765.84616,6.4783 c 2.51133,-1.411 4.56606,-2.6887 4.56606,-2.8395 0,-0.1507 -2.66505,-5.9422 -5.92231,-12.8699 -3.25728,-6.92782 -5.92232,-12.92432 -5.92232,-13.32563 0,-0.87512 10.38596,-6.10569 12.11325,-6.10048 0.66658,0.002 3.43282,4.95913 6.14722,11.01581 2.71438,6.0567 5.4474,11.2209 6.07337,11.4762 1.45187,0.5919 9.22592,-3.355 9.22592,-4.6841 0,-0.5502 -1.3325,-3.6539 -2.96114,-6.89708 -1.62862,-3.2432 -4.00928,-8.27917 -5.29033,-11.19105 l -2.32919,-5.29432 5.33558,-2.56312 5.3356,-2.56311 5.89146,12.47397 c 3.2403,6.86069 6.0629,12.64631 6.27244,12.85691 0.20953,0.2107 2.62835,-0.7618 5.37516,-2.16099 l 4.9942,-2.54402 -6.48883,-13.64634 c -3.56886,-7.50549 -7.36457,-15.58281 -8.43491,-17.94962 -1.65435,-3.6582 -2.28509,-4.21774 -4.20765,-3.73268 -1.24386,0.31382 -10.86675,4.72606 -21.3842,9.80497 -10.51744,5.07891 -21.92578,10.53735 -25.35185,12.12988 -4.43209,2.06013 -6.09774,3.33545 -5.77348,4.42053 0.53967,1.80591 14.93392,32.49567 16.42177,35.01267 1.28113,2.1672 0.88985,2.2186 6.31418,-0.829 z m 802.20026,-36.87556 c 2.6435,-6.9729 2.4359,-7.70687 -2.7209,-9.62045 -2.628,-0.9752 -8.7758,-3.48024 -13.6617,-5.56676 -21.4094,-9.14286 -35.4145,-14.82757 -36.5299,-14.82757 -1.0351,0 -4.4328,7.08726 -4.4328,9.24651 0,0.79499 3.27,2.30137 19.7411,9.09395 5.7002,2.35074 13.6953,5.70098 17.7669,7.44496 11.5876,4.96331 16.1838,6.7614 17.5446,6.86354 0.6921,0.0519 1.7238,-1.13344 2.2927,-2.63418 z m 5.325,-22.0723 c 2.0627,-1.28152 4.2796,-4.21156 6.2856,-8.30762 6.9967,-14.28682 1.6591,-26.42491 -11.6202,-26.42491 -4.6364,0 -7.6321,2.24506 -12.2362,9.16996 -3.9414,5.92831 -7.2566,9.6823 -8.5505,9.6823 -1.4191,0 -2.2399,-3.87204 -1.5755,-7.43214 0.5909,-3.1663 2.3975,-4.79135 5.4657,-4.91633 2.1149,-0.0861 5.4734,-9.53682 3.7742,-10.62043 -3.9578,-2.52398 -12.4118,1.24833 -16.1547,7.20844 -1.3965,2.2238 -3.0258,6.37581 -3.6206,9.22669 -0.9402,4.5059 -0.8341,5.69143 0.8121,9.07023 2.5875,5.31066 7.4097,8.378 13.1712,8.378 5.9096,0 7.9138,-1.51201 13.9772,-10.54464 3.9737,-5.91971 5.4291,-7.37218 7.1415,-7.1271 1.7065,0.24425 2.2142,1.07948 2.458,4.04418 0.251,3.05265 -0.2318,4.27817 -2.6385,6.69751 -1.6202,1.62864 -3.8155,2.96116 -4.8786,2.96116 -1.4634,0 -2.201,1.07075 -3.0371,4.40827 -0.6073,2.42455 -1.1042,4.8803 -1.1042,5.45724 0,1.86351 8.9162,1.19044 12.3306,-0.93081 z M 519.41077,879.28437 c -27.71339,-2.0802 -38.83665,-3.6777 -58.5934,-8.4153 -55.28433,-13.2572 -105.86269,-39.5327 -147.15214,-76.4456 -18.28442,-16.3464 -33.41233,-32.9415 -47.84004,-52.4799 -35.0963,-47.52849 -57.93023,-105.12931 -64.31019,-162.22869 -4.50034,-40.27717 -1.9699,-83.78405 6.95738,-119.62109 12.32362,-49.47113 32.60383,-91.38115 63.5899,-131.4116 10.09256,-13.03845 29.57006,-33.62529 43.12257,-45.57864 21.2854,-18.77378 51.39843,-38.63842 76.92155,-50.74278 37.32827,-17.70297 74.62644,-27.99677 114.59967,-31.62799 75.04904,-6.81754 147.85018,10.84263 212.0892,51.44882 7.01282,4.43288 26.02754,18.10044 32.08599,23.06304 14.87897,12.18768 35.06577,32.25887 47.40117,47.12972 8.4185,10.14885 22.36051,30.10617 30.07302,43.04808 7.14108,11.98303 19.66573,36.87056 22.61863,44.94515 14.1647,38.73287 20.0159,62.08728 23.4107,93.44215 1.5947,14.72878 1.5914,56.75632 -0.01,71.44013 -7.008,64.43616 -32.13958,125.70534 -72.67157,177.1686 -12.63634,16.0442 -36.743,40.2892 -52.2316,52.5313 -50.94447,40.266 -110.65874,65.4495 -171.8292,72.4658 -12.59712,1.4449 -48.52416,2.5978 -58.23606,1.8688 z m 53.10012,-23.7104 c 68.41116,-8.1332 126.51542,-34.4389 177.61106,-80.4101 36.13452,-32.5107 68.8534,-80.94135 84.11322,-124.50497 1.24254,-3.5472 2.97817,-8.50535 3.85693,-11.01811 5.42329,-15.50738 11.10338,-41.65276 14.09668,-64.88703 2.2695,-17.61623 2.2537,-53.96181 -0.031,-70.94402 -3.2743,-24.33896 -9.48216,-52.09753 -14.97822,-66.97512 -1.41121,-3.82007 -3.14617,-8.73158 -3.85547,-10.91448 C 829.84422,415.21082 816.89767,388.65985 808.16547,374.3245 758.75185,293.20393 676.99415,238.72049 584.06251,224.982 c -34.07774,-5.03785 -60.94291,-4.86751 -96.03819,0.60894 -33.69808,5.25843 -58.84897,13.26685 -90.8594,28.93098 -41.91205,20.50945 -82.66659,54.14704 -110.40126,91.12194 -10.08239,13.44149 -11.85664,16.08026 -22.95351,34.13787 -2.8264,4.5993 -15.29645,29.80574 -18.16219,36.71229 -9.27938,22.36362 -16.24001,47.09654 -19.84042,70.49799 -1.12925,7.33972 -2.28605,14.68445 -2.57067,16.32161 -1.46309,8.41591 -2.19765,35.49707 -1.39947,51.59565 1.64091,33.09609 7.53145,63.12805 18.29397,93.26907 3.82296,10.70641 4.07181,11.29371 11.90259,28.08804 28.26921,60.62779 78.21605,112.97059 138.02975,144.65089 39.66324,21.0076 82.45631,32.9147 131.32101,36.5397 9.3265,0.6919 38.5086,-0.3829 51.12601,-1.883 z m -81.2311,-180.57346 c -15.67529,-3.70638 -33.82377,-13.65896 -48.81599,-26.77055 -16.65209,-14.56324 -28.00499,-28.04801 -37.34756,-44.36077 -5.265,-9.19304 -23.52052,-25.06596 -46.42088,-40.3623 -5.87593,-3.92483 -11.09496,-6.88044 -11.59786,-6.568 -0.53715,0.33371 -0.90994,17.22385 -0.90367,40.94264 0.0115,43.39553 0.2166,45.48671 5.24743,53.49781 3.65145,5.81458 7.9322,8.95205 15.28889,11.20561 8.25738,2.52949 8.95303,2.97723 9.28688,5.97735 l 0.2712,2.43719 h -25.16982 -25.16983 l -0.25071,-120.94488 c -0.18356,-88.55375 0.0471,-121.30557 0.86116,-122.29162 0.90081,-1.09111 8.26255,-1.34673 38.78511,-1.34673 41.87346,0 43.51329,0.19156 56.61853,6.61387 13.82651,6.77579 23.37794,18.70135 26.34387,32.89191 1.98222,9.48402 1.96928,29.3188 -0.026,39.89236 -3.81803,20.23254 -15.04309,37.00389 -29.7958,44.518 -2.30723,1.17515 -4.19497,2.78586 -4.19497,3.57933 0,1.35603 4.70949,4.47033 6.7601,4.47033 1.68615,0 20.23885,9.18131 26.79968,13.26254 9.41502,5.85671 16.14324,11.29313 26.56865,21.4675 28.89747,28.20168 48.19266,38.76642 85.95527,47.06337 19.01867,4.17864 23.58298,4.79759 39.96459,5.41939 13.53315,0.51368 15.82579,0.83041 16.09041,2.22292 0.57293,3.0148 -9.90144,7.6759 -27.92402,12.4262 -8.7636,2.30987 -40.48069,2.62726 -48.36554,0.48399 -9.61176,-2.61269 -20.78596,-6.32979 -25.16983,-8.37274 -19.39832,-9.03996 -49.32866,-34.18948 -63.10026,-53.02114 -4.19352,-5.73432 -7.14815,-8.43998 -14.74895,-13.50615 -16.78791,-11.1897 -39.59481,-23.04063 -45.62976,-23.71015 -4.5235,-0.50185 -2.43134,2.54017 5.52626,8.03516 12.90855,8.91381 24.62427,21.03872 42.43369,43.91578 15.05973,19.34494 40.43658,39.5352 66.07837,52.5731 7.23478,3.67861 12.89533,7.16298 12.89533,7.93779 0,1.88584 -19.65907,2.19066 -27.14393,0.42089 z M 396.32348,536.13358 c 6.16546,-2.3683 13.54644,-6.81163 16.49987,-9.93288 1.68251,-1.77812 6.82294,-8.86571 8.09954,-11.16758 2.55655,-4.60982 5.21147,-17.67116 5.21147,-25.63879 0,-9.50299 -2.76004,-21.43648 -6.23936,-26.97697 -5.05656,-8.05208 -14.71636,-14.17353 -25.54017,-16.18491 -2.97757,-0.55331 -14.47908,-0.88493 -25.55891,-0.73692 l -20.14515,0.2691 -0.25657,45.82037 -0.25658,45.82036 2.20166,0.70245 c 4.11981,1.31443 17.03598,1.91973 28.03181,1.3137 8.51392,-0.46926 12.52864,-1.20454 17.95239,-3.28793 z m 280.09906,132.81059 c -1.35773,-1.36484 -1.55109,-6.44533 -1.55109,-40.75394 0,-36.05294 0.1319,-39.16901 1.64554,-38.87392 0.90507,0.17644 2.06814,1.66031 2.58462,3.29748 4.81827,15.27318 13.36996,29.76067 23.94433,40.56429 8.14643,8.32303 13.40521,11.42505 28.08748,16.56808 8.62193,3.02017 10.37049,3.28904 21.71514,3.33897 11.31478,0.0498 12.78844,-0.16042 17.76693,-2.53475 11.30231,-5.39025 18.75399,-16.58509 18.75399,-28.17456 0,-8.02802 -2.64985,-13.76881 -9.53212,-20.65091 -11.16278,-11.16252 -25.51966,-18.34298 -49.05449,-24.53417 -29.61142,-7.78971 -45.28626,-20.33214 -53.15864,-42.53556 -2.54357,-7.17393 -3.49494,-26.49313 -1.8016,-36.58493 1.3258,-7.9015 2.98754,-9.52383 3.01395,-2.94247 0.0382,9.53112 5.73184,25.64149 12.36377,34.98402 7.4452,10.48818 17.34611,18.0339 29.15342,22.21849 5.88688,2.08634 29.47328,11.17447 41.87178,16.13369 20.59386,8.23725 35.81015,22.92798 42.13703,40.68166 1.83109,5.13815 2.24488,8.37781 2.26082,17.69988 0.0176,10.36537 -0.22631,11.93796 -2.66401,17.16795 -1.47593,3.16654 -3.5569,6.87353 -4.62441,8.23774 -3.88345,4.9629 -11.945,10.43715 -19.04236,12.93089 -14.00356,4.9203 -18.67601,5.32128 -62.00721,5.32128 -35.33102,0 -40.50344,-0.19265 -41.86287,-1.55921 z M 257.02886,667.7303 c 0.99011,-0.70661 5.33429,-3.60887 9.65374,-6.44945 4.31945,-2.8406 10.87101,-8.00944 14.55901,-11.4863 l 6.70548,-6.3216 v -94.16588 c 0,-91.44662 -0.0567,-94.32802 -1.96311,-99.78056 -2.21142,-6.32485 -5.68803,-10.49292 -11.076,-13.27887 -4.05987,-2.09925 -10.63078,-2.50838 -12.36048,-0.76961 -0.61496,0.61817 -1.81423,0.85545 -2.66504,0.52726 -1.99162,-0.76827 -2.13731,-8.85349 -0.18884,-10.47908 0.95065,-0.79308 7.97545,-1.05281 23.41404,-0.86565 l 22.05592,0.26736 1.24772,2.48056 c 0.98482,1.95788 1.25079,27.693 1.26228,122.13403 l 0.0145,119.65345 -26.22974,-0.0905 c -21.75429,-0.075 -25.92257,-0.30968 -24.42953,-1.37521 z m 565.70767,-52.47408 c -0.30892,-3.23193 -2.05324,-8.2602 -4.80718,-13.85749 -3.62019,-7.3579 -5.93013,-10.40427 -14.22022,-18.75368 -5.53929,-5.57891 -13.63901,-12.4468 -18.39348,-15.59612 -11.15389,-7.38825 -29.32808,-16.83702 -37.53608,-19.51503 -8.13913,-2.65554 -23.97806,-10.79646 -31.3383,-16.10731 -8.18348,-5.90486 -15.61111,-14.30795 -19.58722,-22.15962 -3.0675,-6.05742 -3.5784,-8.10535 -3.99532,-16.01536 -0.38699,-7.342 -0.0856,-10.36628 1.58234,-15.87558 4.31201,-14.24313 15.57189,-28.57506 27.02424,-34.39727 3.01391,-1.53223 8.97619,-3.47343 13.24952,-4.31377 7.70222,-1.51464 8.01824,-1.49269 36.39419,2.52868 23.38478,3.31404 44.31741,5.94632 48.04828,6.0421 0.36838,0.01 1.36778,0.71884 2.22086,1.57641 1.35184,1.35892 1.55109,6.08543 1.55109,36.79497 0,38.91582 -0.39007,40.95511 -4.98636,26.06825 -9.65507,-31.27173 -31.67501,-48.02544 -69.04253,-52.53052 -16.3506,-1.97125 -28.18032,1.44337 -34.04427,9.82678 -2.66204,3.8058 -3.00573,5.15732 -3.31272,13.02719 -0.83145,21.31364 7.31613,35.60859 25.233,44.27142 8.41631,4.0693 25.04796,10.14697 38.9915,14.24859 27.66748,8.13864 43.44097,23.4904 48.74098,47.4378 1.74316,7.87619 1.54039,24.94807 -0.35542,29.9252 -0.82272,2.15994 -0.98889,1.85201 -1.4169,-2.62564 z M 504.25228,576.29469 c 5.65837,-3.79114 13.06019,-9.50396 16.44852,-12.69516 l 6.16056,-5.80218 -0.27061,-96.20144 c -0.26752,-95.10221 -0.2941,-96.25245 -2.32685,-100.66644 -2.57336,-5.58794 -8.16595,-10.61165 -12.7825,-11.48226 -1.94141,-0.36612 -5.67888,-0.3791 -8.30546,-0.0288 l -4.77563,0.63683 -0.44429,-4.23706 c -0.24437,-2.33037 -0.0154,-4.79516 0.5088,-5.47732 0.71317,-0.92806 6.62878,-1.24028 23.49971,-1.24028 21.28097,0 22.60397,0.10774 23.56839,1.91923 0.6882,1.29264 1.02178,41.13629 1.02178,122.04356 v 120.12435 h -26.29518 -26.29517 z m 52.38738,-4.26954 0.27909,-11.16253 54.25961,-0.30049 c 29.84279,-0.16527 55.16515,-0.0721 56.2719,0.20722 1.10676,0.27923 2.80653,1.85926 3.77725,3.51117 2.62102,4.46029 7.45029,7.72231 13.95326,9.42499 3.18484,0.8339 6.60986,2.26147 7.61117,3.17238 2.23264,2.0311 2.36277,4.89608 0.25924,5.7075 -0.85871,0.33126 -31.9654,0.60228 -69.12596,0.60228 h -67.56465 z m -0.19989,-123.5319 c 0.0115,-81.80415 0.28038,-104.46366 1.26297,-106.41603 l 1.24841,-2.48056 h 23.16657 23.16657 l 0.30271,5.33559 0.30272,5.3356 -2.77035,-0.72806 c -12.89528,-3.38894 -23.19486,4.30001 -25.96929,19.38689 -0.63016,3.42674 -0.9031,34.02001 -0.74313,83.29645 l 0.25283,77.88054 33.03773,0.49611 33.03771,0.49612 1.14672,2.31341 c 2.19211,4.42239 7.44736,8.89881 11.71533,9.97913 3.25474,0.82385 4.5516,1.78694 5.74684,4.26779 0.84897,1.76211 1.32659,3.55678 1.06138,3.98816 -0.26522,0.43139 -24.21928,0.78432 -53.23124,0.78432 h -52.74903 z m -109.57732,88.11844 c 0,-0.51352 0.45524,-1.21649 1.01163,-1.56216 3.17727,-1.97396 11.96444,-23.53944 13.80112,-33.87072 1.77093,-9.96144 0.80239,-29.97866 -1.76908,-36.56192 -3.74348,-9.58379 -6.13324,-14.52427 -9.17593,-18.96982 -1.68903,-2.4678 -2.82874,-4.73041 -2.53269,-5.02802 0.83074,-0.83508 6.22165,1.31178 13.38352,5.32978 9.3913,5.26878 17.12101,13.44637 21.57683,22.82698 3.53838,7.44919 3.6788,8.14927 3.64347,18.16612 -0.0713,20.21649 -7.30779,34.42027 -22.46559,44.09544 -8.26052,5.27265 -17.47328,8.21171 -17.47328,5.57432 z M 178.5361,328.65111 c -3.87827,-1.69291 -10.10602,-6.49179 -14.76771,-11.37949 -3.19105,-3.34577 -8.7561,-12.89892 -7.51406,-12.89892 0.333,0 2.67239,1.83935 5.19865,4.08743 2.52626,2.24809 5.5586,4.5367 6.73852,5.08579 3.00742,1.39953 8.5152,0.14054 10.8971,-2.4909 5.97923,-6.6056 19.09959,-24.93107 18.66493,-26.06969 -0.49923,-1.30781 -6.45241,-3.41748 -9.67398,-3.42824 -1.59928,-0.005 -8.70817,-10.44333 -8.70817,-12.7862 0,-1.57913 3.79123,-1.37445 9.44792,0.51006 8.67145,2.88887 17.14613,10.43542 24.54463,21.85656 l 2.67456,4.12874 -11.89085,15.83793 c -14.31798,19.07072 -17.35458,21.15115 -25.61154,17.54693 z m 689.43048,-7.93309 c -0.318,-0.83311 -0.8747,-5.0889 -1.2371,-9.45735 -0.3624,-4.36844 -0.9574,-8.12805 -1.3222,-8.35465 -0.3647,-0.22663 -2.9611,0.65819 -5.7697,1.96625 l -5.1065,2.37829 -6.7723,-8.13645 c -8.00337,-9.61543 -24.29015,-27.4053 -29.9845,-32.75171 -3.90386,-3.66533 -3.99141,-3.88684 -2.9215,-7.39123 1.32853,-4.35139 0.9602,-4.88552 -2.32986,-3.37863 -1.38503,0.63437 -3.27464,1.14568 -4.19913,1.13623 -0.92449,-0.01 -5.6356,-3.706 -10.46912,-8.21455 -7.77473,-7.25201 -8.66524,-8.42836 -7.72179,-10.20045 2.45235,-4.60626 20.29995,-20.25829 21.60458,-18.94683 0.30892,0.31053 -0.82204,2.25207 -2.51322,4.31451 -1.69118,2.06246 -3.07487,4.26495 -3.07487,4.89442 0,0.62947 1.44356,2.29654 3.20792,3.7046 1.76434,1.40805 5.42877,4.58243 8.14317,7.05417 2.71439,2.47175 5.42925,4.4982 6.033,4.50324 0.60376,0.005 3.45784,-4.67087 6.3424,-10.3909 l 5.24464,-10.40003 6.98281,-3.38997 c 3.84055,-1.86449 7.12167,-3.25868 7.29137,-3.0982 0.2927,0.27675 -7.12724,13.64256 -14.9662,26.95909 -1.98155,3.36618 -3.60311,6.49168 -3.60348,6.94557 -3.6e-4,0.4539 1.76412,2.61128 3.92108,4.79417 5.27951,5.34301 17.4175,18.59095 23.1819,25.30171 2.5782,3.00148 6.4303,7.30933 8.5603,9.573 l 3.8728,4.11576 5.6489,-1.49258 c 8.5718,-2.26487 18.8959,-1.34178 23.3713,2.08968 1.9245,1.47562 3.4992,3.04785 3.4992,3.49385 0,0.8382 -8.8118,12.7331 -12.3911,16.72655 -2.3269,2.59615 -14.2421,7.11519 -18.8422,7.14623 -1.886,0.0127 -3.329,-0.57296 -3.6806,-1.49379 z m 20.1081,-19.86573 c 0,-2.23172 -2.3632,-3.9138 -4.0373,-2.87371 -1.0309,0.64049 -1.1891,4.47698 -0.2825,6.85191 0.5636,1.47648 0.7715,1.47037 2.4676,-0.0727 1.0187,-0.92672 1.8522,-2.68424 1.8522,-3.90557 z M 143.92832,287.75294 c -2.29264,-8.77331 -2.12359,-9.26414 3.71564,-10.78818 2.90786,-0.75895 5.63142,-1.59389 6.05237,-1.85541 0.42094,-0.2615 0.32592,-2.54661 -0.21114,-5.07798 -1.03961,-4.89993 -0.27731,-6.29236 3.46246,-6.32467 0.96747,-0.008 3.27473,-0.65179 5.12725,-1.42989 l 3.36821,-1.4147 1.12431,5.44416 c 0.61837,2.99428 0.90857,6.00931 0.64489,6.70004 -0.26368,0.69075 -2.63271,2.06171 -5.26451,3.04658 -6.32178,2.36576 -6.39503,2.46392 -5.16916,6.9269 1.17675,4.28417 0.77349,4.76683 -6.03177,7.21917 -5.12852,1.84813 -5.75514,1.62335 -6.81855,-2.44602 z m 79.3109,-9.94704 c -2.20228,-2.03282 -7.0882,-6.30242 -10.85757,-9.488 -24.98597,-21.11626 -25.6501,-21.82362 -26.47999,-28.20379 -0.37353,-2.8717 -0.93275,-5.88558 -1.24269,-6.69752 -0.78666,-2.06072 1.80625,-1.87507 4.15005,0.29714 1.0524,0.97536 8.13188,7.06999 15.73218,13.54364 7.6003,6.47365 13.96679,12.1499 14.14775,12.61387 0.69883,1.79179 2.37866,0.48016 13.67253,-10.67561 6.41399,-6.33558 13.66058,-13.13549 16.10354,-15.11093 2.44295,-1.97545 5.55216,-4.73217 6.90936,-6.12605 1.35719,-1.39388 4.79487,-4.28189 7.63929,-6.41783 3.55329,-2.66825 4.7888,-4.12792 3.9482,-4.66458 -2.23262,-1.42539 -6.35064,-0.83945 -9.03873,1.28608 -1.45899,1.15367 -2.86194,1.88727 -3.11763,1.63023 -0.2557,-0.25704 -1.30728,-3.52112 -2.33684,-7.2535 -1.83805,-6.66327 -1.83803,-6.85 9.7e-4,-10.31219 2.9386,-5.53237 5.24068,-7.72308 9.44706,-8.98995 7.93052,-2.38849 16.22834,2.50945 17.71102,10.45425 0.35347,1.89397 1.01909,3.44358 1.47918,3.44358 0.46009,0 3.28781,-1.84279 6.28382,-4.09507 l 5.4473,-4.09509 -2.18156,-3.09854 c -1.19987,-1.7042 -5.62026,-6.9619 -9.82311,-11.68379 -7.38898,-8.30147 -7.67989,-8.81858 -8.80131,-15.64465 -1.14978,-6.99867 -0.92148,-8.78292 0.97322,-7.60581 0.94134,0.58483 10.54832,12.20699 21.67108,26.21686 2.88679,3.63609 5.55183,6.61107 5.92232,6.61107 1.54863,0 18.93285,-11.00399 18.93345,-11.98465 0.002,-3.39184 -13.0036,-18.8527 -19.00011,-22.58693 -2.59376,-1.61523 -2.71439,-2.04207 -2.71439,-9.60527 0,-4.3532 0.26194,-7.91492 0.58208,-7.91492 0.32014,0 1.31953,0.84429 2.22086,1.87622 0.97033,1.1109 4.77022,2.59055 9.31567,3.62743 l 7.67686,1.75122 -0.64698,7.17718 -0.64699,7.17718 5.49327,7.97127 c 5.02125,7.28633 9.50574,16.64583 11.04453,23.05079 0.73616,3.06417 -0.17687,3.92615 -10.85652,10.24955 -4.34304,2.5715 -9.52433,5.75506 -11.51398,7.07456 -3.59721,2.38561 -3.63116,2.38835 -6.03689,0.48609 -2.95442,-2.33612 -3.67396,-1.77447 -3.00841,2.34827 0.46688,2.89218 0.10878,3.41912 -4.27134,6.2853 -2.62952,1.72062 -5.85093,4.13895 -7.15869,5.37401 l -2.37776,2.24559 -3.89152,-2.14277 -3.89152,-2.14277 0.6406,2.70136 c 0.35233,1.48573 0.8634,3.45698 1.1357,4.38054 0.31775,1.07769 -0.35573,2.14394 -1.88023,2.97667 -1.30643,0.71361 -4.7061,3.30674 -7.55482,5.76249 -2.84872,2.45576 -6.10772,5.26251 -7.24223,6.23723 -4.56126,3.91883 -18.02925,16.24745 -20.38675,18.66208 -1.38236,1.41584 -5.55324,5.76922 -9.26863,9.67418 -3.71539,3.90496 -7.04669,7.08876 -7.40289,7.07512 -0.3562,-0.0137 -2.4495,-1.68803 -4.65181,-3.72084 z m 554.60406,-49.09028 c 1.31616,-1.77361 3.60582,-5.45724 5.08816,-8.18585 4.56386,-8.40095 16.50172,-27.65802 18.60679,-30.01478 1.09676,-1.22788 2.34909,-2.2325 2.783,-2.2325 0.43389,0 3.90985,-1.52684 7.72436,-3.39298 3.81449,-1.86613 6.93545,-3.12514 6.93545,-2.79779 0,0.73627 -5.87669,10.07485 -15.71093,24.96606 -9.22505,13.96875 -14.96794,20.16814 -21.15116,22.83247 -6.43557,2.77305 -7.07483,2.59743 -4.27567,-1.17463 z m -43.22857,-4.13407 c -4.38487,-4.7333 -10.54018,-18.67852 -8.9158,-20.19921 0.42323,-0.39622 0.9897,-0.0963 1.25881,0.66663 0.79202,2.24511 5.40931,6.64339 8.81517,8.39706 5.99153,3.08501 22.21853,1.41771 26.11078,-2.68284 1.83048,-1.92845 1.97552,-2.97429 1.46641,-10.57401 l -0.565,-8.43391 5.50189,-3.85489 c 6.35266,-4.45099 6.76813,-4.21646 7.76076,4.38085 1.04784,9.07557 -2.59573,18.79507 -9.73677,25.97353 -4.14724,4.16897 -16.4612,9.91628 -22.4949,10.49909 -4.78544,0.46222 -4.99672,0.36643 -9.20135,-4.1723 z m -7.64526,-26.70416 c -3.64737,-1.73 -6.90776,-3.95912 -7.2453,-4.9536 -0.37338,-1.10011 -1.19514,-1.58387 -2.09852,-1.23539 -0.81665,0.31503 -3.54128,-0.34168 -6.05476,-1.45933 l -4.56993,-2.03209 -3.26387,3.94986 c -5.74976,6.95822 -9.00806,8.35241 -18.31935,7.83856 -9.3108,-0.51381 -14.46646,-2.69925 -19.22775,-8.15046 -6.09621,-6.97961 -4.72073,-14.65683 4.37788,-24.43497 4.32286,-4.64569 17.67889,-13.6296 18.71468,-12.5884 0.24178,0.24305 -2.43362,3.38761 -5.94532,6.98791 -10.19598,10.45318 -9.84308,15.99851 1.38541,21.76994 3.98315,2.04734 6.73442,2.72862 11.01919,2.72862 7.2345,0 7.91742,-1.11137 8.53005,-13.88141 l 0.45267,-9.43586 5.55479,-4.14222 5.55479,-4.14221 0.64048,6.88601 c 0.83394,8.96595 1.03536,9.38593 5.63192,11.74321 l 3.90095,2.00055 2.45172,-3.196 c 2.56264,-3.34059 11.01814,-8.53413 12.10897,-7.43758 0.34706,0.34886 -1.43846,3.54959 -3.96779,7.11271 l -4.59881,6.47842 3.63468,1.52663 c 4.55721,1.9141 4.07401,2.02415 5.79418,-1.31972 1.42253,-2.76527 10.99786,-9.81358 11.98456,-8.82171 1.03099,1.03639 -8.86695,19.64051 -13.53437,25.43913 -2.68873,3.34038 -5.20157,6.03773 -5.58408,5.99413 -0.38251,-0.0435 -3.67969,-1.49474 -7.32707,-3.22473 z m -486.01009,-8.01798 c -0.27657,-0.72455 -0.3666,-3.71989 -0.20006,-6.65632 l 0.30282,-5.33895 6.66261,-0.2934 6.6626,-0.29339 v 6.02982 c 0,6.68369 0.17163,6.5202 -7.69636,7.33087 -3.82835,0.39445 -5.36341,0.18592 -5.73161,-0.77863 z m 130.42968,-14.77737 c -2.67152,-4.09861 -5.50253,-13.93212 -6.12621,-21.27935 -0.33585,-3.95648 -0.36013,-7.19362 -0.054,-7.19362 0.30618,0 1.29259,2.22726 2.19204,4.94946 0.89947,2.72219 1.9661,5.15491 2.3703,5.40603 1.08151,0.67191 21.17252,-6.92559 21.58234,-8.16146 0.46474,-1.40154 -2.76766,-7.36719 -7.69168,-14.19567 l -4.00371,-5.55219 0.28914,-8.33895 0.28917,-8.33895 10.28918,16.3717 c 5.65904,9.00443 10.44731,16.57121 10.64059,16.81505 0.19326,0.24385 2.66991,-0.28909 5.50365,-1.18431 11.73567,-3.70747 41.81021,-10.51307 56.40682,-12.76436 3.2176,-0.49626 5.99251,-1.04536 6.16646,-1.22022 0.17395,-0.17486 -0.14795,-2.84235 -0.71535,-5.92776 l -1.03162,-5.60982 4.08979,-6.05405 c 3.75492,-5.55833 4.19445,-5.90386 5.36786,-4.21981 0.70293,1.00884 1.60426,5.77088 2.00297,10.58234 0.4742,5.7226 1.17085,8.92011 2.01434,9.24549 0.70919,0.27357 4.74354,0.12653 8.96521,-0.32674 l 7.67578,-0.82415 0.71722,-3.48181 c 0.39446,-1.91499 1.30969,-4.6298 2.03383,-6.0329 1.82399,-3.53416 6.6771,-9.2047 7.32253,-8.55589 0.29256,0.2941 -0.16986,3.28849 -1.02762,6.65419 -0.85775,3.3657 -1.55956,7.19965 -1.55956,8.51988 0,2.24812 0.34445,2.40042 5.42878,2.40042 5.15168,0 5.42879,-0.1283 5.42879,-2.51354 0,-2.95556 4.06039,-11.39695 6.43493,-13.37797 1.52808,-1.27483 1.59476,-0.93098 0.87807,4.52733 -1.40098,10.66985 -1.35433,10.86807 2.55752,10.86807 3.41527,0 3.46169,-0.0576 4.06775,-5.04888 0.67291,-5.54192 4.88191,-13.30727 7.21285,-13.30727 1.01488,0 0.591,24.80165 -0.50547,29.57541 -2.0608,8.97216 -2.23841,9.12133 -10.85967,9.12133 -5.23839,0 -7.77818,-0.39069 -8.06264,-1.24028 -0.31954,-0.95442 -0.73865,-0.97218 -1.81837,-0.0771 -1.96841,1.63189 -14.67109,1.99507 -15.62306,0.44668 -0.56866,-0.92493 -1.01301,-0.8801 -1.89767,0.19144 -0.64595,0.78242 -3.99216,1.69133 -7.59136,2.06201 -3.53991,0.36458 -7.74902,0.9268 -9.35359,1.24939 -2.40978,0.48448 -3.43327,0.0313 -5.88263,-2.60442 l -2.96526,-3.19095 -0.99789,2.6384 c -0.54885,1.45115 -0.9979,3.05585 -0.9979,3.56606 0,0.51019 -0.12371,0.92763 -0.27491,0.92763 -1.43751,0 -36.0511,7.24849 -40.19423,8.41713 -2.98583,0.84223 -8.34698,2.18436 -11.91368,2.98253 -3.56669,0.79818 -8.10519,2.13179 -10.08558,2.96357 -1.98038,0.83184 -3.76907,1.51239 -3.97488,1.51239 -0.95649,0 -4.62447,-3.83055 -4.62447,-4.82945 0,-0.61813 -0.44417,-1.12389 -0.98705,-1.12389 -0.54288,0 -0.98705,1.29004 -0.98705,2.86675 0,4.48477 -2.67844,6.52622 -13.64594,10.40076 -5.6052,1.98016 -10.36982,3.6003 -10.58806,3.6003 -0.21824,0 -1.0673,-1.02869 -1.88681,-2.28598 z m 94.96769,-2.24425 c -2.57867,-1.34936 -4.68849,-2.74702 -4.68849,-3.10591 0,-0.3589 1.60965,-3.00193 3.577,-5.87341 l 3.57702,-5.22088 5.1395,2.91575 c 2.82673,1.60368 5.37769,2.91576 5.66881,2.91576 0.29112,0 1.70667,-1.78842 3.14566,-3.97427 l 2.61634,-3.97427 5.90477,2.99633 c 3.24762,1.64798 5.90476,3.2857 5.90476,3.63936 0,1.29326 -6.15556,10.24288 -7.04507,10.24288 -0.50434,0 -3.13916,-1.13198 -5.85517,-2.51549 -5.31693,-2.70842 -6.15052,-2.48905 -8.69374,2.28791 -1.49125,2.80104 -3.3917,2.73247 -9.25139,-0.33376 z m 81.18502,-6.50327 C 536.60012,159.9297 528.9402,151.64703 537.146,155.09361 c 4.16418,1.74901 11.29508,1.86331 15.03781,0.241 5.8899,-2.55301 14.39879,-9.90587 15.50022,-13.39435 0.66256,-2.09851 -2.4593,-11.81677 -5.11902,-15.93528 -1.33522,-2.06758 -1.224,-2.58507 1.38628,-6.44946 3.13199,-4.63679 4.88035,-6.68207 5.71201,-6.68207 0.30107,0 1.72227,2.34414 3.15823,5.20918 4.29756,8.57453 5.92909,10.38136 9.99463,11.06864 2.04278,0.34533 7.62379,1.38947 12.40223,2.3203 10.42881,2.03152 10.1318,2.28395 11.10299,-9.4362 0.51886,-6.2614 0.29184,-9.94294 -0.91664,-14.86568 -1.82072,-7.416771 -1.81826,-7.423971 5.14341,-15.132941 3.81634,-4.22602 4.03434,-4.33077 4.07266,-1.95719 0.0223,1.38191 2.26688,5.61393 4.99942,9.42612 l 4.95896,6.918321 -5.30387,5.17002 -5.30387,5.17001 -0.65565,8.72113 c -0.71653,9.53099 -4.69996,23.44392 -7.58233,26.48283 -1.7572,1.85263 -1.99628,1.84674 -13.45723,-0.33095 -6.41753,-1.21939 -12.85324,-2.57365 -14.30158,-3.00946 -2.60053,-0.78252 -4.76956,0.26975 -4.76956,2.31389 0,1.69294 -8.05962,12.95332 -10.96761,15.32323 -4.5554,3.71249 -8.44124,3.73095 -14.69574,0.0699 z m 80.94683,-6.47235 c -0.005,-0.62378 0.62484,-4.41904 1.39901,-8.4339 0.77417,-4.01487 2.38019,-14.44377 3.56893,-23.17534 1.18873,-8.73158 2.44306,-16.37117 2.78739,-16.97689 0.34433,-0.60571 3.45407,-4.17771 6.91055,-7.9378 l 6.28449,-6.836491 -0.67253,5.457231 c -2.17609,17.65799 -8.15224,43.33887 -11.19859,48.12287 -3.13221,4.91885 -9.06769,11.31264 -9.07925,9.78032 z M 504.79824,99.996369 c -2.54924,-1.62514 -4.63498,-3.21724 -4.63498,-3.538 0,-1.2079 2.08129,-4.41711 4.81817,-7.42932 l 2.83382,-3.11888 5.10256,3.68504 5.10257,3.68504 3.45274,-4.05488 3.45273,-4.05487 4.34151,3.33131 c 2.38782,1.83222 4.89484,3.51672 5.57113,3.74333 1.35939,0.4555 0.58764,1.81888 -4.32834,7.64651 l -2.71933,3.223651 -4.94514,-3.05873 c -2.71983,-1.682281 -5.36934,-3.058711 -5.88782,-3.058711 -0.51847,0 -1.92784,1.33951 -3.13195,2.97667 -1.2041,1.637171 -2.68504,2.976671 -3.29099,2.976671 -0.60594,0 -3.18745,-1.32966 -5.73668,-2.954831 z m 8.69022,-16.51823 c -2.17151,-1.32421 -4.59964,-2.80277 -5.39584,-3.28566 -1.75602,-1.06504 -0.55708,-3.71492 3.95754,-8.74683 l 2.89541,-3.22718 4.52907,3.47523 c 2.49099,1.91137 4.93922,3.47524 5.44053,3.47524 1.73138,0 0.89595,1.55961 -3.28353,6.12977 l -4.19497,4.5871 z"
     id="path3723"
     inkscape:connector-curvature="0" />
</svg>
